HIERARCHY
ROOT Hips
{
  OFFSET 196.326 95.9168 97.7182
  CHANNELS 6 Xposition Yposition Zposition Zrotation Xrotation Yrotation
  JOINT LeftUpLeg
  {
    OFFSET 8.64259 1.95398 -2.38835
    CHANNELS 3 Zrotation Xrotation Yrotation
    JOINT LeftLeg
    {
      OFFSET 43.7702 0 0
      CHANNELS 3 Zrotation Xrotation Yrotation
      JOINT LeftFoot
      {
        OFFSET 40.6238 0 0
        CHANNELS 3 Zrotation Xrotation Yrotation
        JOINT LeftToeBase
        {
          OFFSET 12.7242 0 0
          CHANNELS 3 Zrotation Xrotation Yrotation
          End Site
          {
            OFFSET 0 0 0
          }
        }
      }
    }
  }
  JOINT RightUpLeg
  {
    OFFSET -8.2249 1.95398 -2.59336
    CHANNELS 3 Zrotation Xrotation Yrotation
    JOINT RightLeg
    {
      OFFSET 43.5653 0 0
      CHANNELS 3 Zrotation Xrotation Yrotation
      JOINT RightFoot
      {
        OFFSET 40.6238 0 0
        CHANNELS 3 Zrotation Xrotation Yrotation
        JOINT RightToeBase
        {
          OFFSET 12.7242 0 0
          CHANNELS 3 Zrotation Xrotation Yrotation
          End Site
          {
            OFFSET 0 0 0
          }
        }
      }
    }
  }
  JOINT Spine
  {
    OFFSET 0.165834 0.87714 6.61349
    CHANNELS 3 Zrotation Xrotation Yrotation
    JOINT Spine1
    {
      OFFSET 7.38963 1.71661e-005 0
      CHANNELS 3 Zrotation Xrotation Yrotation
      JOINT Spine2
      {
        OFFSET 11.9445 1.14441e-005 0
        CHANNELS 3 Zrotation Xrotation Yrotation
        JOINT Spine3
        {
          OFFSET 14.7254 4.19617e-005 0
          CHANNELS 3 Zrotation Xrotation Yrotation
          JOINT Spine4
          {
            OFFSET 10.9679 0 0
            CHANNELS 3 Zrotation Xrotation Yrotation
            JOINT RightShoulder
            {
              OFFSET 2.46616 -1.6653 3.69651
              CHANNELS 3 Zrotation Xrotation Yrotation
              JOINT RightArm
              {
                OFFSET 13.0012 0 0
                CHANNELS 3 Zrotation Xrotation Yrotation
                JOINT RightForeArm
                {
                  OFFSET 28.7848 1.52588e-005 0
                  CHANNELS 3 Zrotation Xrotation Yrotation
                  JOINT RightHand
                  {
                    OFFSET 26.5688 1.52588e-005 0
                    CHANNELS 3 Zrotation Xrotation Yrotation
                    End Site
                    {
                      OFFSET 0 0 0
                    }
                  }
                }
              }
            }
            JOINT LeftShoulder
            {
              OFFSET 2.38034 -1.29275 -3.75231
              CHANNELS 3 Zrotation Xrotation Yrotation
              JOINT LeftArm
              {
                OFFSET 16.3182 6.10351e-005 0
                CHANNELS 3 Zrotation Xrotation Yrotation
                JOINT LeftForeArm
                {
                  OFFSET 27.0901 0 0
                  CHANNELS 3 Zrotation Xrotation Yrotation
                  JOINT LeftHand
                  {
                    OFFSET 24.5451 1.52588e-005 0
                    CHANNELS 3 Zrotation Xrotation Yrotation
                    End Site
                    {
                      OFFSET 0 0 0
                    }
                  }
                }
              }
            }
            JOINT Neck
            {
              OFFSET 5.0226 -0.0266342 0
              CHANNELS 3 Zrotation Xrotation Yrotation
              JOINT Head
              {
                OFFSET 6.69363 2.86102e-005 0
                CHANNELS 3 Zrotation Xrotation Yrotation
                End Site
                {
                  OFFSET 0 0 0
                }
              }
            }
          }
        }
      }
    }
  }
}
MOTION
Frames:	7
Frame Time:	0.0416667
-269.82 74.6768 -266.807 105.63 -59.604 104.016 -170.381 -2.75174 91.5333 -92.0075 -14.3109 -9.07784 -170.961 1.06151 -30.6531 -12.4203 -33.1621 -18.9847 -172.813 58.0466 102.936 -83.0974 0.714547 -1.60572 63.7357 -12.1705 -6.03506 72.7544 -87.6593 -148.773 1.88452 9.29391 -88.8646 8.24639 4.26041 1.9917 -3.41881 4.34392 1.80201 -25.9819 3.465 3.18069 -5.9692 3.465 3.18068 78.7701 -72.3103 -109.958 24.0737 -21.5367 43.1857 -92.5235 60.1962 -70.3918 -10.2622 1.65086 -56.9538 -101.905 -44.0601 58.7828 -25.7272 6.72106 16.9805 12.8819 -3.76543 -90.0197 31.4833 2.48006 4.06207 20.8924 -1.98284 -12.936 -6.48739 2.2646 8.64292 
-269.602 75.5031 -265.986 102.923 -58.7572 99.1571 -170.842 -3.90553 86.3431 -86.6295 -16.6637 -6.14047 -173.693 10.1339 -28.3897 -14.4309 -31.5825 -23.941 -170.808 57.3357 99.0574 -85.056 -0.102233 -2.35937 65.3219 -11.6118 -5.57532 -139.031 -86.9184 -2.26227 0.971092 9.96332 -88.6963 6.91386 2.49825 2.46585 -4.75676 2.60431 2.35354 -27.2834 1.64203 3.10228 -7.27072 1.64203 3.10229 78.7571 -52.7894 -116.502 40.6395 -15.5951 42.8904 -129.742 33.2488 -42.9325 -17.3982 2.22404 -48.2055 -99.6398 -39.3439 60.2291 -26.439 -3.52115 7.12751 11.5684 -3.60239 -99.2221 27.495 2.26484 4.41487 18.7121 1.85573 -7.26535 1.09282 4.37777 5.71581 
-268.259 77.4676 -264.834 96.3725 -56.7025 94.5031 -170.97 -7.09401 85.8174 -74.6044 -9.3494 -3.71127 -178.093 27.5483 -26.8672 -16.0234 -28.0163 -31.3104 -171.358 56.1446 97.3619 -86.0567 -3.03459 -1.81157 67.6182 -9.85542 -5.4025 -130.038 -70.1363 2.88662 0.601487 9.46187 -88.9686 7.9345 1.65139 1.94953 -3.73668 1.73557 1.87498 -26.2643 0.989284 2.35552 -6.25165 0.989298 2.35553 78.9391 -53.6492 -115.993 42.5869 -16.6382 48.4084 -128.293 20.0728 -54.1448 -31.7686 5.24477 -34.6077 -98.4493 -39.4122 62.1756 -27.7298 -2.59872 5.09466 17.0472 -5.84355 -105.195 31.3965 3.28369 6.71295 17.865 2.14993 -7.04055 -0.368811 4.50973 6.39663 
-266.44 80.3023 -263.029 86.9803 -52.0782 87.7297 -171.095 -10.1537 88.5409 -58.223 8.13121 -3.70268 170.314 50.0566 -21.5796 -12.2555 -21.4397 -37.7764 -173.803 55.547 95.5634 -83.348 -4.58708 -1.05665 69.1575 -8.69979 -5.31608 -132.764 -60.1187 4.37477 -0.0472444 8.74533 -89.2065 9.37719 0.262424 1.54996 -2.29465 0.330373 1.53691 -24.8223 -0.215464 1.55717 -4.80963 -0.215462 1.55717 77.7145 -53.9886 -117.587 42.7933 -13.9508 52.3416 -137.922 -10.1035 -77.1855 -52.8657 -0.728142 -5.18085 -97.8821 -38.6194 62.7617 -28.5775 -4.40589 6.68811 18.3752 -8.21688 -112.991 30.8492 3.47684 7.5507 15.7909 2.81618 -7.3671 0.165385 5.21608 7.42573 
-264.144 84.1325 -260.521 77.0176 -44.6281 80.7397 -171.668 -11.0896 90.2349 -41.3033 22.8949 -2.70442 117.855 60.7028 19.4005 6.30169 -9.47943 -38.7546 -177.942 57.048 93.8811 -74.5184 -2.00304 0.0204302 68.2513 -8.59012 -5.13777 40.7465 1.58979 19.8169 -0.891576 7.92521 -89.5188 11.0308 -1.55179 1.10631 -0.63977 -1.50156 1.17353 -23.181 -1.8125 0.588702 -3.16833 -1.8125 0.588703 78.5085 -52.9739 -116.871 43.4871 -12.1986 53.4706 -153.681 -20.3431 -103.9 -68.0916 -12.4223 16.2882 -97.5738 -38.5948 63.2579 -29.1107 -4.06352 7.69088 18.8025 -10.5838 -118.779 30.6186 3.51376 7.75936 15.6318 3.58562 -6.50544 -0.0788179 5.70972 7.57863 
-261.363 87.9999 -257.836 71.3794 -37.4471 78.2184 -172.916 -4.66249 91.5664 -41.1796 24.2391 0.723903 74.1659 29.4237 37.633 49.1743 15.0678 -34.6576 178.49 57.9802 92.6911 -58.7343 5.14745 1.82044 65.1866 -8.21114 -4.89126 50.5673 2.78346 10.7251 -1.57454 7.3394 -89.9298 12.2038 -3.09651 0.480929 0.536439 -3.07232 0.61687 -22.0282 -3.09775 -0.472864 -2.01554 -3.09774 -0.472869 80.5908 -51.3905 -114.483 43.849 -11.1062 52.4227 -158.159 -22.4355 -111.328 -77.3053 -15.0145 16.4354 -98.172 -38.9003 62.4078 -28.6926 -3.15204 8.98004 19.3564 -12.3482 -121.308 28.8777 3.49795 8.41036 16.4571 4.09746 -4.37773 -0.641617 5.5594 6.58336 
-258.056 89.4314 -254.486 71.4704 -36.3586 77.0255 -173.517 -0.322942 90.9202 -45.6193 18.1789 0.951608 51.5521 -5.30415 17.0212 93.9437 34.3565 -47.8871 179.647 55.5545 90.1149 -49.1296 10.8687 1.69095 61.2609 -5.38566 -3.25781 52.923 3.15195 11.0127 -1.68368 7.24284 -89.8776 12.4033 -3.28739 0.61957 0.736272 -3.25692 0.763789 -21.8322 -3.32144 -0.398184 -1.81957 -3.32145 -0.398193 80.813 -51.5928 -114.083 42.6546 -9.93948 50.3982 -152.419 -24.3771 -108.478 -89.9475 -9.20407 5.54913 -98.1139 -38.4502 62.3088 -29.9742 -0.0561818 10.6648 16.7895 -11.1261 -119.482 31.8588 3.45582 7.12341 15.4735 4.22996 -2.96047 -0.47102 5.22845 5.66696 
